<?xml version="1.0" standalone="no"?>
<!DOCTYPE svg PUBLIC "-//W3C//DTD SVG 20010904//EN"
 "http://www.w3.org/TR/2001/REC-SVG-20010904/DTD/svg10.dtd">
<svg version="1.0" xmlns="http://www.w3.org/2000/svg"
 width="400.000000pt" height="395.000000pt" viewBox="0 0 400.000000 395.000000"
 preserveAspectRatio="xMidYMid meet">
<metadata>
Created by potrace 1.16, written by Peter Selinger 2001-2019
</metadata>
<g transform="translate(0.000000,395.000000) scale(0.100000,-0.100000)"
fill="#000000" stroke="none">
<path d="M310 1980 l0 -1660 1688 0 1687 0 0 1660 0 1660 -1687 0 -1688 0 0
-1660z m3140 0 l0 -1420 -1450 0 -1450 0 0 1420 0 1420 1450 0 1450 0 0 -1420z"/>
<path d="M2560 2830 l0 -290 290 0 290 0 0 290 0 290 -290 0 -290 0 0 -290z
m380 -5 l0 -85 -85 0 -85 0 0 85 0 85 85 0 85 0 0 -85z"/>
<path d="M2318 2412 l-97 -97 42 -45 c77 -83 65 -84 172 22 52 52 95 103 95
114 0 19 -85 104 -104 104 -6 0 -55 -44 -108 -98z"/>
<path d="M1943 2037 c-51 -52 -93 -97 -93 -102 0 -14 94 -105 109 -105 13 0
201 182 201 195 0 13 -96 105 -110 105 -8 0 -57 -42 -107 -93z"/>
<path d="M1573 1667 c-51 -51 -93 -100 -93 -109 0 -17 84 -108 100 -108 13 0
200 182 200 195 0 10 -101 115 -110 115 -3 -1 -47 -42 -97 -93z"/>
<path d="M870 1130 l0 -290 285 0 285 0 0 290 0 290 -285 0 -285 0 0 -290z
m370 5 l0 -85 -85 0 -85 0 0 85 0 85 85 0 85 0 0 -85z"/>
</g>
</svg>
